<svg width="182" height="54" viewBox="0 0 182 54" fill="none" xmlns="http://www.w3.org/2000/svg">
<g clip-path="url(#clip0_195_47152)">
<path d="M71.248 20.6211H74.3345V23.7215H91.7913V27.0277H74.3345V30.1586H71.248V20.6236V20.6211Z" fill="#FFCE21"/>
<path d="M71.248 10.8203H91.7913V14.1264H83.3258V16.5768H91.7913V19.8829H71.248V16.5768H80.2419V14.1264H71.248V10.8203Z" fill="#FFCE21"/>
<path d="M75.4526 0.135352H80.0658L80.4171 1.96616L81.2993 5.89186H87.8235C88.5288 5.89186 89.0874 5.30022 89.0874 4.59176C89.0874 3.88331 88.5288 3.29166 87.8235 3.29166H82.3863L81.7695 0.132812H87.6466C90.144 0.132812 92.1713 2.1693 92.1713 4.68063C92.1713 7.19197 90.144 9.19799 87.6466 9.19799H75.45C72.9526 9.19799 70.9531 7.1615 70.9531 4.68063C70.9531 2.19977 72.9526 0.132812 75.45 0.132812L75.4526 0.135352ZM75.3641 3.2942C74.6285 3.2942 74.0699 3.88585 74.0699 4.5943C74.0699 5.30275 74.6285 5.8944 75.3641 5.8944H78.3039L77.6568 3.29674H75.3641V3.2942Z" fill="#FFCE21"/>
<path d="M109.16 18.5094V24.5427C109.16 27.3308 106.883 29.6187 104.107 29.6187H96.4453V0.539062H103.445C106.22 0.539062 108.498 2.78631 108.498 5.57188V9.98259C108.498 12.2705 107.464 13.8931 105.351 15.2236C107.545 15.183 109.16 16.4704 109.16 18.5094ZM101.084 13.0602L102.368 12.1867C103.361 11.4782 103.859 10.8561 103.859 9.815V6.07212C103.859 5.44746 103.321 4.9066 102.699 4.9066H101.084V13.0602ZM104.522 18.4688C104.522 17.5547 103.816 16.93 102.947 16.93C102.616 16.93 102.242 17.0138 101.91 17.222L101.081 17.7223V25.2106H103.359C103.981 25.2106 104.519 24.7103 104.519 24.0882V18.4713L104.522 18.4688Z" fill="#FFCE21"/>
<path d="M123.861 0.539062V29.6187H119.223V17.6385H115.785V29.6187H111.146V0.539062H115.785V13.2684H119.223V0.539062H123.861Z" fill="#FFCE21"/>
<path d="M138.851 6.4923V23.7568C138.851 27.2914 135.994 30.1633 132.473 30.1633C128.952 30.1633 126.139 27.294 126.139 23.7568V6.4923C126.139 2.95765 128.995 0.128906 132.473 0.128906C135.952 0.128906 138.851 2.95765 138.851 6.4923ZM134.212 6.24092C134.212 5.28361 133.426 4.53453 132.473 4.53453C131.52 4.53453 130.775 5.28361 130.775 6.24092V24.0869C130.775 25.0442 131.561 25.7933 132.473 25.7933C133.386 25.7933 134.212 25.0442 134.212 24.0869V6.24092Z" fill="#FFCE21"/>
<path d="M153.634 5.69845V12.6865C153.634 15.142 152.641 16.3888 150.487 17.5111L145.765 19.964V29.6996H141.127V0.625H148.581C151.357 0.625 153.634 2.87225 153.634 5.70099V5.69845ZM148.955 6.15806C148.955 5.5334 148.458 4.99253 147.838 4.99253H145.768V15.3502L147.467 14.4361C148.5 13.9358 148.958 13.1055 148.958 12.1076V6.15806H148.955Z" fill="#FFCE21"/>
<path d="M161.171 0C164.359 0 167.589 2.20408 167.589 6.73921V29.6205H160.011C157.154 29.6205 154.877 27.3326 154.877 24.4633V17.1426L155.499 17.0588L163.16 15.3118V7.28261C163.16 5.20295 162.124 4.37007 161.131 4.37007C160.137 4.37007 159.308 5.07599 159.308 6.20088V13.8542L154.877 14.7277V6.40656C154.877 2.16345 158.024 0 161.171 0ZM163.158 19.5523L159.306 20.5096V23.7548C159.306 24.669 160.051 25.418 160.961 25.418H163.155V19.5523H163.158Z" fill="#FFCE21"/>
<path d="M182.001 29.6203H169.951V0.5H174.59V25.2096H182.001V29.6203Z" fill="#FFCE21"/>
<path d="M70.9551 33.75H79.3347C79.3347 34.7733 79.3347 35.7966 79.3347 36.82C77.6158 36.82 75.8994 36.82 74.1805 36.82V42.8076H77.7523C77.7523 43.8309 77.7523 44.8517 77.7523 45.875C76.5617 45.875 75.3711 45.875 74.1805 45.875V54.0032H70.9551V33.7525V33.75Z" fill="#FFCE21"/>
<path d="M80.2949 54V33.7773H83.5204V54H80.2949Z" fill="#FFCE21"/>
<path d="M92.8581 54.0006H84.4785V33.75H87.704V50.9332C89.4228 50.9332 91.1443 50.9332 92.8631 50.9332C92.8631 51.9565 92.8606 52.9773 92.8581 54.0006Z" fill="#FFCE21"/>
<path d="M105.861 36.6147V54.001H102.608V37.1048C102.608 36.7874 102.348 36.5258 102.032 36.5258C101.716 36.5258 101.456 36.7874 101.456 37.1048V54.001H98.2301V37.1048C98.2301 36.7874 97.9698 36.5258 97.626 36.5258C97.31 36.5258 97.0497 36.7874 97.0497 37.1048V54.001H93.8242V36.6147C93.8242 34.8778 95.2347 33.4609 96.9637 33.4609C98.2605 33.4609 99.355 34.243 99.8429 35.3705C100.333 34.243 101.428 33.4609 102.722 33.4609C104.451 33.4609 105.861 34.8778 105.861 36.6147Z" fill="#FFCE21"/>
<path d="M110.373 33.793H118.581C118.581 34.7934 118.581 35.7939 118.581 36.7969H113.533V42.6626H117.029V45.6666H113.533V54.003H110.373V33.7955V33.793Z" fill="#FFCE21"/>
<path d="M128.466 37.875V42.3237L126.717 42.664L122.966 43.5147V49.8044C122.966 50.4849 123.529 51.0233 124.207 51.0233C124.884 51.0233 125.448 50.4849 125.448 49.8044V44.5634L128.466 43.9692V49.6343C128.466 52.0415 126.52 53.9967 124.124 53.9967C121.727 53.9967 119.809 52.0415 119.809 49.6343V37.8775C119.809 35.4703 121.755 33.543 124.124 33.543C126.492 33.543 128.466 35.4703 128.466 37.8775V37.875ZM125.448 37.7886C125.448 37.0802 124.884 36.5418 124.207 36.5418C123.529 36.5418 122.966 37.0802 122.966 37.7886V40.6224L125.448 40.0003V37.7912V37.7886Z" fill="#FFCE21"/>
<path d="M135.335 41.5561V37.7599C135.335 37.0794 134.772 36.5131 134.094 36.5131C133.417 36.5131 132.853 37.0794 132.853 37.7599V39.6593C132.853 40.2535 133.164 40.8502 133.642 41.2184L136.771 43.5139C137.759 44.2223 138.351 45.3828 138.351 46.6016V49.6335C138.351 52.0128 136.405 53.968 134.008 53.968C131.612 53.968 129.693 52.0128 129.693 49.6335V45.751L132.712 45.1568V49.7757C132.712 50.4562 133.275 51.0225 133.953 51.0225C134.63 51.0225 135.194 50.4562 135.194 49.7757V47.4243C135.194 46.66 134.827 45.9516 134.208 45.525L131.556 43.6256C130.401 42.775 129.696 41.4164 129.696 39.9716V37.8742C129.696 35.467 131.642 33.5117 134.011 33.5117C136.379 33.5117 138.354 35.467 138.354 37.8742V40.9619L135.335 41.5561Z" fill="#FFCE21"/>
<path d="M148.24 44.2479V49.5753C148.24 51.9825 146.293 53.9098 143.897 53.9098C141.501 53.9098 139.582 51.9825 139.582 49.5753V33.8242H142.742V39.4055H146.832L146.24 42.4095H142.744V49.7479C142.744 50.0882 142.886 50.4005 143.111 50.6265C143.336 50.8246 143.647 50.9668 143.985 50.9668C144.663 50.9668 145.227 50.4285 145.227 49.7479V44.8472L148.245 44.253L148.24 44.2479Z" fill="#FFCE21"/>
<path d="M149.467 53.624V33.8203H152.627V53.624H149.467Z" fill="#FFCE21"/>
<path d="M162.514 33.8229V47.8751C162.514 48.7817 162.176 49.6602 161.556 50.3103L158.313 53.7662H158.061L154.817 50.3103C154.198 49.6577 153.859 48.7817 153.859 47.8751V33.8229H157.019V47.6187C157.019 47.9031 157.133 48.157 157.33 48.383L158.232 49.3174L159.049 48.4109C159.246 48.1849 159.36 47.9285 159.36 47.6466V33.8203H162.52L162.514 33.8229Z" fill="#FFCE21"/>
<path d="M168.03 33.4531C170.201 33.4531 172.4 34.9538 172.4 38.0416V53.6225H167.239C165.292 53.6225 163.743 52.0634 163.743 50.1107V45.1236L164.165 45.0677L169.382 43.8768V38.4098C169.382 36.9929 168.677 36.4266 168 36.4266C167.322 36.4266 166.758 36.9091 166.758 37.6734V42.8865L163.74 43.4807V37.8156C163.74 34.9259 165.884 33.4531 168.027 33.4531H168.03ZM169.385 46.769L166.761 47.4216V49.6308C166.761 50.2529 167.269 50.7633 167.888 50.7633H169.382V46.769H169.385Z" fill="#FFCE21"/>
<path d="M181.837 53.6246H173.629V33.793H176.789V50.6207C178.472 50.6207 180.153 50.6156 181.837 50.6156V53.6246Z" fill="#FFCE21"/>
<path d="M60.1595 53.9691H56.9543V50.4979C56.9543 46.3031 53.5569 42.8878 49.381 42.8878H29.447C25.2711 42.8878 21.8712 46.3005 21.8712 50.4979V53.9691H18.666V50.4979C18.666 44.5281 23.5017 39.668 29.447 39.668H49.381C55.3239 39.668 60.162 44.5256 60.162 50.4979V53.9691H60.1595Z" fill="#FFCE21"/>
<path d="M21.8712 19.2227H18.666V53.7465H21.8712V19.2227Z" fill="#FFCE21"/>
<path d="M60.1578 53.7486H56.9526V38.0331C56.9526 33.8382 53.5553 30.4229 49.3794 30.4229H29.4453V27.2031H49.3794C55.3222 27.2031 60.1603 32.0607 60.1603 38.0331V53.7486H60.1578Z" fill="#FFCE21"/>
<path d="M48.7314 30.3815H29.7731C23.6483 30.3815 18.666 25.3766 18.666 19.2239C18.666 13.0713 23.6483 8.06641 29.7731 8.06641H48.7314V11.2862H29.7731C25.4152 11.2862 21.8712 14.8488 21.8712 19.2239C21.8712 23.5991 25.4152 27.1617 29.7731 27.1617H48.7314C53.0893 27.1617 56.6332 23.6016 56.6332 19.2239H59.8385C59.8385 25.3766 54.8562 30.3815 48.7314 30.3815Z" fill="#FFCE21"/>
<path d="M49.0517 11.2864H30.0934C23.9686 11.2864 18.9863 6.28154 18.9863 0.128906H22.1916C22.1916 4.5066 25.7355 8.06665 30.0934 8.06665H49.0517C53.4096 8.06665 56.9535 4.50406 56.9535 0.128906H60.1588C60.1588 6.28154 55.1765 11.2864 49.0517 11.2864Z" fill="#FFCE21"/>
<path d="M30.0654 11.2851H11.1071C4.98225 11.2851 0 6.27764 0 0.125H3.20522C3.20522 4.50269 6.74917 8.06274 11.1071 8.06274H30.0654C34.4233 8.06274 37.9672 4.50015 37.9672 0.125H41.1724C41.1724 6.27764 36.1902 11.2825 30.0654 11.2825V11.2851Z" fill="#FFCE21"/>
</g>
<defs>
<clipPath id="clip0_195_47152">
<rect width="182" height="54" fill="white"/>
</clipPath>
</defs>
</svg>
