<svg width="58" height="665" viewBox="0 0 58 665" fill="none" xmlns="http://www.w3.org/2000/svg">
<g clip-path="url(#clip0_197_88465)">
<path d="M20.0897 16.7139C22.8687 14.395 28.1549 7.49867 30.8433 10.0283C33.3504 12.3773 37.1263 14.636 39.6334 17.2861C41.9291 16.7741 44.8592 13.6723 41.8083 12.1364C37.5794 8.22144 33.3806 4.03543 29.2121 0C26.4935 3.40301 8.30908 18.039 20.0897 16.7139ZM39.6334 45.2329C41.9291 44.721 44.8592 41.6191 41.8083 40.0833C37.5794 36.1683 33.3806 31.9823 29.2121 27.9469C26.4935 31.3499 8.30908 45.9858 20.0897 44.6608C22.8687 42.3419 28.1549 35.4455 30.8433 37.9752C33.3504 40.3242 37.1263 42.5828 39.6334 45.2329ZM56.7304 40.0833C20.6334 6.05314 37.7002 6.59522 1.87506 40.2037C-4.98186 41.7697 30.4808 72.8184 29.2423 67.0664C16.8576 43.7272 -4.71 50.1116 24.379 26.682C31.1755 13.9734 41.6573 37.8849 51.1119 42.5226C45.9768 46.558 17.4315 78.209 36.069 64.6271C38.9689 60.2905 63.7685 42.4021 56.7606 40.1134L56.7304 40.0833Z" fill="black"/>
</g>
<g clip-path="url(#clip1_197_88465)">
<path d="M19.0897 215.714C21.8687 213.395 27.1549 206.499 29.8433 209.028C32.3504 211.377 36.1263 213.636 38.6334 216.286C40.9291 215.774 43.8592 212.672 40.8083 211.136C36.5794 207.221 32.3806 203.035 28.2121 199C25.4935 202.403 7.30908 217.039 19.0897 215.714ZM38.6334 244.233C40.9291 243.721 43.8592 240.619 40.8083 239.083C36.5794 235.168 32.3806 230.982 28.2121 226.947C25.4935 230.35 7.30908 244.986 19.0897 243.661C21.8687 241.342 27.1549 234.446 29.8433 236.975C32.3504 239.324 36.1263 241.583 38.6334 244.233ZM55.7304 239.083C19.6334 205.053 36.7002 205.595 0.875058 239.204C-5.98186 240.77 29.4808 271.818 28.2423 266.066C15.8576 242.727 -5.71 249.112 23.379 225.682C30.1755 212.973 40.6573 236.885 50.1119 241.523C44.9768 245.558 16.4315 277.209 35.069 263.627C37.9689 259.291 62.7685 241.402 55.7606 239.113L55.7304 239.083Z" fill="black"/>
</g>
<g clip-path="url(#clip2_197_88465)">
<path d="M19.0897 415.714C21.8687 413.395 27.1549 406.499 29.8433 409.028C32.3504 411.377 36.1263 413.636 38.6334 416.286C40.9291 415.774 43.8592 412.672 40.8083 411.136C36.5794 407.221 32.3806 403.035 28.2121 399C25.4935 402.403 7.30908 417.039 19.0897 415.714ZM38.6334 444.233C40.9291 443.721 43.8592 440.619 40.8083 439.083C36.5794 435.168 32.3806 430.982 28.2121 426.947C25.4935 430.35 7.30908 444.986 19.0897 443.661C21.8687 441.342 27.1549 434.446 29.8433 436.975C32.3504 439.324 36.1263 441.583 38.6334 444.233ZM55.7304 439.083C19.6334 405.053 36.7002 405.595 0.875058 439.204C-5.98186 440.77 29.4808 471.818 28.2423 466.066C15.8576 442.727 -5.71 449.112 23.379 425.682C30.1755 412.973 40.6573 436.885 50.1119 441.523C44.9768 445.558 16.4315 477.209 35.069 463.627C37.9689 459.291 62.7685 441.402 55.7606 439.113L55.7304 439.083Z" fill="black"/>
</g>
<g clip-path="url(#clip3_197_88465)">
<path d="M19.0897 613.714C21.8687 611.395 27.1549 604.499 29.8433 607.028C32.3504 609.377 36.1263 611.636 38.6334 614.286C40.9291 613.774 43.8592 610.672 40.8083 609.136C36.5794 605.221 32.3806 601.035 28.2121 597C25.4935 600.403 7.30908 615.039 19.0897 613.714ZM38.6334 642.233C40.9291 641.721 43.8592 638.619 40.8083 637.083C36.5794 633.168 32.3806 628.982 28.2121 624.947C25.4935 628.35 7.30908 642.986 19.0897 641.661C21.8687 639.342 27.1549 632.446 29.8433 634.975C32.3504 637.324 36.1263 639.583 38.6334 642.233ZM55.7304 637.083C19.6334 603.053 36.7002 603.595 0.875058 637.204C-5.98186 638.77 29.4808 669.818 28.2423 664.066C15.8576 640.727 -5.71 647.112 23.379 623.682C30.1755 610.973 40.6573 634.885 50.1119 639.523C44.9768 643.558 16.4315 675.209 35.069 661.627C37.9689 657.291 62.7685 639.402 55.7606 637.113L55.7304 637.083Z" fill="black"/>
</g>
<g clip-path="url(#clip4_197_88465)">
<path d="M34.2336 86.553C27.244 68.4002 33.4875 154.298 30.6603 166.472C20.7257 208.856 28.1472 121.58 26.6158 111.681C25.1236 102.231 24.0634 86.1378 31.4064 83.4306C32.8592 82.8992 33.0556 81.2383 31.7205 80.0592C17.5844 67.3372 25.2022 116.863 22.4142 129.834C23.5137 146.509 18.6053 165.841 22.5713 181.286C43.4613 213.025 33.566 102.896 34.2336 86.553Z" fill="black"/>
</g>
<g clip-path="url(#clip5_197_88465)">
<path d="M34.2336 286.553C27.244 268.4 33.4875 354.298 30.6603 366.472C20.7257 408.856 28.1472 321.58 26.6158 311.681C25.1236 302.231 24.0634 286.138 31.4064 283.431C32.8592 282.899 33.0556 281.238 31.7205 280.059C17.5844 267.337 25.2022 316.863 22.4142 329.834C23.5137 346.509 18.6053 365.841 22.5713 381.286C43.4613 413.025 33.566 302.896 34.2336 286.553Z" fill="black"/>
</g>
<g clip-path="url(#clip6_197_88465)">
<path d="M34.2336 484.553C27.244 466.4 33.4875 552.298 30.6603 564.472C20.7257 606.856 28.1472 519.58 26.6158 509.681C25.1236 500.231 24.0634 484.138 31.4064 481.431C32.8592 480.899 33.0556 479.238 31.7205 478.059C17.5844 465.337 25.2022 514.863 22.4142 527.834C23.5137 544.509 18.6053 563.841 22.5713 579.286C43.4613 611.025 33.566 500.896 34.2336 484.553Z" fill="black"/>
</g>
<defs>
<clipPath id="clip0_197_88465">
<rect width="57" height="68" fill="white" transform="translate(1)"/>
</clipPath>
<clipPath id="clip1_197_88465">
<rect width="57" height="68" fill="white" transform="translate(0 199)"/>
</clipPath>
<clipPath id="clip2_197_88465">
<rect width="57" height="68" fill="white" transform="translate(0 399)"/>
</clipPath>
<clipPath id="clip3_197_88465">
<rect width="57" height="68" fill="white" transform="translate(0 597)"/>
</clipPath>
<clipPath id="clip4_197_88465">
<rect width="15" height="109" fill="white" transform="translate(21 78)"/>
</clipPath>
<clipPath id="clip5_197_88465">
<rect width="15" height="109" fill="white" transform="translate(21 278)"/>
</clipPath>
<clipPath id="clip6_197_88465">
<rect width="15" height="109" fill="white" transform="translate(21 476)"/>
</clipPath>
</defs>
</svg>
